<mxfile host="app.diagrams.net" modified="2023-07-06T04:02:41.874Z" agent="Mozilla/5.0 (Macintosh; Intel Mac OS X 10_15_7) AppleWebKit/537.36 (KHTML, like Gecko) Chrome/114.0.0.0 Safari/537.36" etag="5BKxEZCNVQ12rAvBptYo" version="21.3.8" type="github">
  <diagram id="kgpKYQtTHZ0yAKxKKP6v" name="Page-1">
    <mxGraphModel dx="1392" dy="770" grid="1" gridSize="10" guides="1" tooltips="1" connect="1" arrows="1" fold="1" page="1" pageScale="1" pageWidth="850" pageHeight="1100" math="0" shadow="0">
      <root>
        <mxCell id="0" />
        <mxCell id="1" parent="0" />
        <mxCell id="3nuBFxr9cyL0pnOWT2aG-1" value="Allocation Context" style="shape=table;childLayout=tableLayout;startSize=40;collapsible=0;recursiveResize=0;expand=0;fillColor=none;fontStyle=1;movable=1;resizable=1;rotatable=1;deletable=1;editable=1;locked=0;connectable=1;" parent="1" vertex="1">
          <mxGeometry x="90" y="150" width="670" height="320" as="geometry" />
        </mxCell>
        <mxCell id="3nuBFxr9cyL0pnOWT2aG-3" value="Allocation Context" style="shape=tableRow;horizontal=0;swimlaneHead=0;swimlaneBody=0;top=0;left=0;bottom=0;right=0;fillColor=none;points=[[0,0.5],[1,0.5]];portConstraint=eastwest;startSize=40;collapsible=0;recursiveResize=0;expand=0;fontStyle=1;" parent="3nuBFxr9cyL0pnOWT2aG-1" vertex="1">
          <mxGeometry y="40" width="670" height="280" as="geometry" />
        </mxCell>
        <mxCell id="3nuBFxr9cyL0pnOWT2aG-4" value="NavigationBanner" style="swimlane;swimlaneHead=0;swimlaneBody=0;connectable=0;fillColor=none;startSize=40;collapsible=0;recursiveResize=0;expand=0;fontStyle=1;" parent="3nuBFxr9cyL0pnOWT2aG-3" vertex="1">
          <mxGeometry x="40" width="190" height="280" as="geometry">
            <mxRectangle width="190" height="280" as="alternateBounds" />
          </mxGeometry>
        </mxCell>
        <mxCell id="3nuBFxr9cyL0pnOWT2aG-5" style="edgeStyle=orthogonalEdgeStyle;rounded=0;orthogonalLoop=1;jettySize=auto;html=1;" parent="3nuBFxr9cyL0pnOWT2aG-4" source="3nuBFxr9cyL0pnOWT2aG-6" target="3nuBFxr9cyL0pnOWT2aG-7" edge="1">
          <mxGeometry relative="1" as="geometry" />
        </mxCell>
        <mxCell id="3nuBFxr9cyL0pnOWT2aG-6" value="Start" style="rounded=1;whiteSpace=wrap;html=1;arcSize=50;" parent="3nuBFxr9cyL0pnOWT2aG-4" vertex="1">
          <mxGeometry x="20" y="60" width="90" height="40" as="geometry" />
        </mxCell>
        <mxCell id="2W9Eh5ppJ_-HrsKfWjEB-4" value="" style="edgeStyle=orthogonalEdgeStyle;rounded=0;orthogonalLoop=1;jettySize=auto;html=1;" edge="1" parent="3nuBFxr9cyL0pnOWT2aG-4" source="3nuBFxr9cyL0pnOWT2aG-7" target="3nuBFxr9cyL0pnOWT2aG-9">
          <mxGeometry relative="1" as="geometry" />
        </mxCell>
        <mxCell id="3nuBFxr9cyL0pnOWT2aG-7" value="Click Reset" style="rounded=0;whiteSpace=wrap;html=1;" parent="3nuBFxr9cyL0pnOWT2aG-4" vertex="1">
          <mxGeometry x="20" y="120" width="90" height="40" as="geometry" />
        </mxCell>
        <mxCell id="3nuBFxr9cyL0pnOWT2aG-9" value="Update reset counter" style="rounded=0;whiteSpace=wrap;html=1;" parent="3nuBFxr9cyL0pnOWT2aG-4" vertex="1">
          <mxGeometry x="20" y="190" width="90" height="40" as="geometry" />
        </mxCell>
        <mxCell id="3nuBFxr9cyL0pnOWT2aG-8" value="TaaTable" style="swimlane;swimlaneHead=0;swimlaneBody=0;connectable=0;fillColor=none;startSize=40;collapsible=0;recursiveResize=0;expand=0;fontStyle=1;" parent="3nuBFxr9cyL0pnOWT2aG-3" vertex="1">
          <mxGeometry x="230" width="310" height="280" as="geometry">
            <mxRectangle width="310" height="280" as="alternateBounds" />
          </mxGeometry>
        </mxCell>
        <mxCell id="2W9Eh5ppJ_-HrsKfWjEB-36" value="" style="edgeStyle=orthogonalEdgeStyle;rounded=0;orthogonalLoop=1;jettySize=auto;html=1;" edge="1" parent="3nuBFxr9cyL0pnOWT2aG-8" source="2W9Eh5ppJ_-HrsKfWjEB-5" target="2W9Eh5ppJ_-HrsKfWjEB-27">
          <mxGeometry relative="1" as="geometry" />
        </mxCell>
        <mxCell id="2W9Eh5ppJ_-HrsKfWjEB-38" style="edgeStyle=orthogonalEdgeStyle;rounded=0;orthogonalLoop=1;jettySize=auto;html=1;exitX=1;exitY=0.5;exitDx=0;exitDy=0;entryX=0;entryY=0.5;entryDx=0;entryDy=0;" edge="1" parent="3nuBFxr9cyL0pnOWT2aG-8" source="2W9Eh5ppJ_-HrsKfWjEB-5" target="2W9Eh5ppJ_-HrsKfWjEB-34">
          <mxGeometry relative="1" as="geometry" />
        </mxCell>
        <mxCell id="2W9Eh5ppJ_-HrsKfWjEB-45" style="edgeStyle=orthogonalEdgeStyle;rounded=0;orthogonalLoop=1;jettySize=auto;html=1;entryX=0;entryY=0.5;entryDx=0;entryDy=0;" edge="1" parent="3nuBFxr9cyL0pnOWT2aG-8" source="2W9Eh5ppJ_-HrsKfWjEB-5" target="2W9Eh5ppJ_-HrsKfWjEB-44">
          <mxGeometry relative="1" as="geometry" />
        </mxCell>
        <mxCell id="2W9Eh5ppJ_-HrsKfWjEB-46" style="edgeStyle=orthogonalEdgeStyle;rounded=0;orthogonalLoop=1;jettySize=auto;html=1;entryX=0;entryY=0.5;entryDx=0;entryDy=0;" edge="1" parent="3nuBFxr9cyL0pnOWT2aG-8" source="2W9Eh5ppJ_-HrsKfWjEB-5" target="2W9Eh5ppJ_-HrsKfWjEB-29">
          <mxGeometry relative="1" as="geometry" />
        </mxCell>
        <mxCell id="2W9Eh5ppJ_-HrsKfWjEB-5" value="reset" style="whiteSpace=wrap;html=1;rounded=0;" vertex="1" parent="3nuBFxr9cyL0pnOWT2aG-8">
          <mxGeometry x="20" y="50" width="70" height="40" as="geometry" />
        </mxCell>
        <mxCell id="2W9Eh5ppJ_-HrsKfWjEB-27" value="resetNode" style="whiteSpace=wrap;html=1;rounded=0;" vertex="1" parent="3nuBFxr9cyL0pnOWT2aG-8">
          <mxGeometry x="140" y="50" width="160" height="40" as="geometry" />
        </mxCell>
        <mxCell id="2W9Eh5ppJ_-HrsKfWjEB-29" value="emitAllocationChange" style="whiteSpace=wrap;html=1;rounded=0;" vertex="1" parent="3nuBFxr9cyL0pnOWT2aG-8">
          <mxGeometry x="140" y="170" width="160" height="40" as="geometry" />
        </mxCell>
        <mxCell id="2W9Eh5ppJ_-HrsKfWjEB-34" value="contributionSvc.enrich" style="whiteSpace=wrap;html=1;rounded=0;" vertex="1" parent="3nuBFxr9cyL0pnOWT2aG-8">
          <mxGeometry x="140" y="230" width="160" height="40" as="geometry" />
        </mxCell>
        <mxCell id="2W9Eh5ppJ_-HrsKfWjEB-44" value="updateLastRow" style="whiteSpace=wrap;html=1;rounded=0;" vertex="1" parent="3nuBFxr9cyL0pnOWT2aG-8">
          <mxGeometry x="140" y="110" width="160" height="40" as="geometry" />
        </mxCell>
        <mxCell id="3nuBFxr9cyL0pnOWT2aG-11" value="???" style="swimlane;swimlaneHead=0;swimlaneBody=0;connectable=0;fillColor=none;startSize=40;collapsible=0;recursiveResize=0;expand=0;fontStyle=1;" parent="3nuBFxr9cyL0pnOWT2aG-3" vertex="1">
          <mxGeometry x="540" width="130" height="280" as="geometry">
            <mxRectangle width="130" height="280" as="alternateBounds" />
          </mxGeometry>
        </mxCell>
        <mxCell id="3nuBFxr9cyL0pnOWT2aG-12" style="edgeStyle=orthogonalEdgeStyle;rounded=0;orthogonalLoop=1;jettySize=auto;html=1;" parent="3nuBFxr9cyL0pnOWT2aG-11" target="3nuBFxr9cyL0pnOWT2aG-14" edge="1">
          <mxGeometry relative="1" as="geometry">
            <mxPoint x="65.02564102564111" y="100" as="sourcePoint" />
          </mxGeometry>
        </mxCell>
        <mxCell id="2W9Eh5ppJ_-HrsKfWjEB-11" style="edgeStyle=orthogonalEdgeStyle;rounded=0;orthogonalLoop=1;jettySize=auto;html=1;entryX=0;entryY=0.5;entryDx=0;entryDy=0;" edge="1" parent="3nuBFxr9cyL0pnOWT2aG-3" source="3nuBFxr9cyL0pnOWT2aG-9" target="2W9Eh5ppJ_-HrsKfWjEB-5">
          <mxGeometry relative="1" as="geometry" />
        </mxCell>
      </root>
    </mxGraphModel>
  </diagram>
</mxfile>
